IKResults
version=1
nRows=14
nColumns=40
inDegrees=yes

Units are S.I. units (second, meters, Newtons, ...)
Angles are in degrees.

endheader
time	pelvis_tilt	pelvis_list	pelvis_rotation	pelvis_tx	pelvis_ty	pelvis_tz	hip_flexion_r	hip_adduction_r	hip_rotation_r	knee_angle_r	knee_angle_r_beta	ankle_angle_r	subtalar_angle_r	mtp_angle_r	hip_flexion_l	hip_adduction_l	hip_rotation_l	knee_angle_l	knee_angle_l_beta	ankle_angle_l	subtalar_angle_l	mtp_angle_l	lumbar_extension	lumbar_bending	lumbar_rotation	arm_flex_r	arm_add_r	arm_rot_r	elbow_flex_r	pro_sup_r	wrist_flex_r	wrist_dev_r	arm_flex_l	arm_add_l	arm_rot_l	elbow_flex_l	pro_sup_l	wrist_flex_l	wrist_dev_l
      1.49000000	     18.34819964	      3.87590109	     -1.87875515	      0.56695015	      0.94334805	     -1.44853996	    -19.95266605	     -5.12526974	     -4.79850245	    -53.31518848	     -0.93052558	    -20.46266211	    -13.84712099	      9.26634040	     -3.82443165	     -5.38415609	     15.57826374	    -20.96854534	     -0.36597016	      5.87625457	      4.50109373	     -4.68850446	    -21.78195177	     -5.52098384	      1.18787930	     -0.75411256	     -9.34311222	     -8.85716960	     40.24267702	     89.95437384	      0.00000000	      0.00000000	    -11.76700290	      9.91973918	     -7.85592148	     17.89040895	     89.95437384	      0.00000000	      0.00000000
      1.50000000	     18.61248465	      3.79488963	     -2.32478197	      0.57836085	      0.94463240	     -1.44920630	    -18.73528681	     -5.28832044	     -3.83080249	    -55.25014662	     -0.96429697	    -21.61974328	    -15.19311401	      9.98286054	     -5.13532671	     -5.58463676	     15.56723614	    -20.55805249	     -0.35880570	      6.87961571	      4.33986180	     -4.73348552	    -21.90348127	     -5.42380513	      1.33862815	     -0.69277105	     -9.45438959	     -8.39686293	     38.06866659	     89.95437384	      0.00000000	      0.00000000	    -10.97994702	      9.89941959	     -7.98971450	     18.03746980	     89.95437384	      0.00000000	      0.00000000
      1.51000000	     18.97587963	      3.55924772	     -2.37147992	      0.58948961	      0.94594973	     -1.45003947	    -17.76435357	     -5.10034655	     -3.35585195	    -57.01954556	     -0.99517881	    -19.97344401	    -16.51113812	     10.21850352	     -6.36787949	     -5.46765432	     15.55961629	    -20.50361005	     -0.35785550	      7.35366043	      4.35102261	     -4.67133734	    -22.24261406	     -5.06464018	      1.18675348	     -0.88416398	     -9.45178081	     -8.23530759	     36.46792719	     89.95437384	      0.00000000	      0.00000000	    -10.14416427	      9.94851026	     -8.10746548	     18.34604022	     89.95437384	      0.00000000	      0.00000000
      1.52000000	     19.22520527	      3.37699298	     -2.50202250	      0.60038401	      0.94715158	     -1.45088212	    -16.56711413	     -5.02062429	     -2.89767734	    -58.81994922	     -1.02660178	    -16.34032821	    -16.64136731	     18.87578881	     -7.57898714	     -5.56511590	     15.07546157	    -20.17837254	     -0.35217904	      7.99986184	      5.05708852	     -3.43101900	    -22.47677140	     -4.77759034	      1.10591896	     -1.05239621	     -9.41977007	     -8.22425313	     34.80346089	     89.95437384	      0.00000000	      0.00000000	     -9.27329538	     10.04558413	     -8.44123598	     18.75056110	     89.95437384	      0.00000000	      0.00000000
      1.53000000	     19.62847120	      3.03450012	     -2.44887354	      0.61126269	      0.94865140	     -1.45170890	    -15.73527457	     -4.69028438	     -2.57149689	    -59.99383524	     -1.04708996	    -13.69545648	    -17.16974424	     18.53704043	     -8.91575381	     -5.34149807	     14.86856414	    -19.95680299	     -0.34831192	      8.44063231	      4.82036808	     -3.41017636	    -22.87907769	     -4.29030815	      0.90605799	     -1.16424644	     -9.37795822	     -8.20354169	     33.01903496	     89.95437384	      0.00000000	      0.00000000	     -8.26943312	     10.08465417	     -8.53263504	     18.94463732	     89.95437384	      0.00000000	      0.00000000
      1.54000000	     19.99764364	      2.72815796	     -2.39667564	      0.62212201	      0.95010655	     -1.45256964	    -14.90418832	     -4.41100266	     -2.25301289	    -60.80103590	     -1.06117827	    -11.73283998	    -17.61516549	     18.34382685	    -10.20362310	     -5.17863444	     14.45555083	    -19.75756150	     -0.34483450	      8.88323151	      4.73464551	     -3.38616855	    -23.22520552	     -3.84199229	      0.68105333	     -1.30579445	     -9.33342707	     -8.20214484	     31.25246572	     89.95437384	      0.00000000	      0.00000000	     -7.23455268	     10.14527544	     -8.60103963	     19.12195505	     89.95437384	      0.00000000	      0.00000000
      1.55000000	     20.28475526	      2.43125660	     -2.22535933	      0.63263143	      0.95129459	     -1.45367409	    -13.88186136	     -4.24328461	     -2.29757452	    -61.50829959	     -1.07352235	    -10.67195502	    -17.88835084	     18.13503543	    -11.29748483	     -4.95242777	     14.32403704	    -19.67171174	     -0.34333614	      9.15892596	      4.71714483	     -3.35763875	    -23.56496863	     -3.34227894	      0.40000022	     -1.65957309	     -9.35089250	     -8.16749390	     29.96611087	     89.95437384	      0.00000000	      0.00000000	     -6.15361670	     10.22737221	     -8.60581940	     19.47194579	     89.95437384	      0.00000000	      0.00000000
      1.56000000	     20.49546841	      2.21318956	     -2.00388066	      0.64323491	      0.95266603	     -1.45468169	    -13.00588450	     -3.85404704	     -1.94005882	    -61.77397606	     -1.07815927	     -7.81759118	    -17.81796104	     19.85234830	    -12.69312701	     -5.14056116	     12.40973574	    -18.79886944	     -0.32810217	      9.69459414	      6.59804841	     -2.85311309	    -23.74061656	     -2.95020264	     -0.08822285	     -1.56841778	     -9.19800661	     -8.26337192	     27.73570465	     89.95437384	      0.00000000	      0.00000000	     -5.12056365	     10.28086590	     -8.31470707	     19.68665246	     89.95437384	      0.00000000	      0.00000000
      1.57000000	     20.62132114	      1.84011025	     -1.77217192	      0.65372055	      0.95363947	     -1.45554318	    -12.01346880	     -3.34837192	     -1.72396700	    -61.81474151	     -1.07887077	     -6.29863500	    -17.97711985	     19.69030148	    -13.69910155	     -4.78811226	     12.16235011	    -18.51905481	     -0.32321848	     10.04651455	      6.39373539	     -2.84903026	    -23.86038453	     -2.39041695	     -0.44248910	     -1.80966314	     -9.16002178	     -8.26121186	     26.14937527	     89.95437384	      0.00000000	      0.00000000	     -4.03999366	     10.39965239	     -8.34029415	     19.98327965	     89.95437384	      0.00000000	      0.00000000
      1.58000000	     20.77098156	      1.45226263	     -1.50414260	      0.66423710	      0.95465284	     -1.45631231	    -11.11709222	     -2.78615464	     -1.56167337	    -61.61902825	     -1.07545492	     -3.87503938	    -17.96327784	     19.42526063	    -14.75672432	     -4.41392382	     11.84539523	    -18.22712450	     -0.31812334	     10.34854075	      6.28972475	     -2.81959580	    -23.98998168	     -1.81952398	     -0.83353732	     -2.06202103	     -9.08505011	     -8.36022453	     24.58666417	     89.95437384	      0.00000000	      0.00000000	     -2.98877699	     10.53895473	     -8.24613852	     20.36988316	     89.95437384	      0.00000000	      0.00000000
      1.59000000	     20.72288670	      1.26219716	     -1.25540249	      0.67439291	      0.95506467	     -1.45751729	     -9.90709458	     -2.67486298	     -1.77343043	    -61.35289827	     -1.07081008	     -2.95661101	    -17.87666267	     19.07391230	    -15.51230241	     -4.21633668	     12.00837827	    -18.02344739	     -0.31456850	     10.67580798	      6.18144251	     -2.77299875	    -23.95459028	     -1.39587212	     -1.22466824	     -2.54233292	     -9.11609707	     -8.35185040	     23.55565252	     89.95437384	      0.00000000	      0.00000000	     -1.87911039	     10.65829197	     -8.17725244	     20.79307543	     89.95437384	      0.00000000	      0.00000000
      1.60000000	     21.02359347	      0.77324657	     -0.75351482	      0.68475552	      0.95620092	     -1.45824720	     -9.38839574	     -1.82553720	     -1.69504743	    -60.47622318	     -1.05550921	     -0.24427455	    -17.73656259	     18.96254939	    -16.87637622	     -3.66565457	     11.41727477	    -17.43254168	     -0.30425525	     10.90659353	      6.01560816	     -2.69239913	    -24.26512484	     -0.67964622	     -1.81913905	     -2.73211613	     -8.93546587	     -8.87831550	     22.01636615	     89.95437384	      0.00000000	      0.00000000	     -0.85972526	     10.81650337	     -7.74667063	     21.30027005	     89.95437384	      0.00000000	      0.00000000
      1.61000000	     21.08092082	      0.50515511	     -0.36609239	      0.69491234	      0.95670332	     -1.45921249	     -8.53777648	     -1.41003868	     -1.81285509	    -59.52276074	     -1.03886815	      0.60942379	    -17.61909985	     18.90575856	    -17.84426507	     -3.35060104	     11.05191393	    -17.03215867	     -0.29726725	     11.11004375	      5.75830120	     -2.62571204	    -24.34202743	     -0.17334882	     -2.29643750	     -3.09952775	     -8.85305133	     -9.22991661	     20.82477852	     89.95437384	      0.00000000	      0.00000000	      0.19193602	     10.98373711	     -7.41297870	     21.92278587	     89.95437384	      0.00000000	      0.00000000
      1.62000000	     20.85349117	      0.47702103	     -0.14247616	      0.70494926	      0.95649791	     -1.46028866	     -7.19833420	     -1.43260931	     -2.07185917	    -58.75959257	     -1.02554836	      1.63304198	    -17.63008407	     18.53941252	    -18.36735116	     -3.28546338	     11.20856299	    -16.85150772	     -0.29411429	     11.41648782	      5.56254031	     -2.60272293	    -24.09688584	      0.06125542	     -2.69044262	     -3.66776603	     -8.87838049	     -9.18458559	     19.95845472	     89.95437384	      0.00000000	      0.00000000	      1.37250561	     11.10796802	     -7.32636338	     22.25276836	     89.95437384	      0.00000000	      0.00000000
